<svg width="23" height="18" viewBox="0 0 23 18" fill="none" xmlns="http://www.w3.org/2000/svg">
<g clipPath="url(#clip0)">
<path d="M22.2939 4.83473V15.5122C22.2939 15.9942 22.1162 16.4113 21.7609 16.7635C21.4056 17.1157 20.9901 17.2918 20.5143 17.2918H2.12528C1.64949 17.2918 1.23395 17.1157 0.878651 16.7635C0.523352 16.4113 0.345703 15.9942 0.345703 15.5122V4.83473C0.345703 4.36512 0.524897 3.95112 0.883285 3.59273C1.24167 3.23434 1.65567 3.05515 2.12528 3.05515H8.65041L8.64115 4.51959H8.36309C8.26422 4.51959 8.1808 4.55203 8.11283 4.61691C8.04486 4.6818 8.01088 4.75749 8.01088 4.844V5.48353C8.01088 5.57004 8.04486 5.64265 8.11283 5.70135C8.1808 5.76005 8.26422 5.7894 8.36309 5.7894H14.3228C14.4217 5.7894 14.5036 5.76005 14.5684 5.70135C14.6333 5.64265 14.6658 5.57004 14.6658 5.48353V4.844C14.6658 4.75749 14.6333 4.6818 14.5684 4.61691C14.5036 4.55203 14.4217 4.51959 14.3228 4.51959H14.0355L14.017 3.05515H20.5143C20.9901 3.05515 21.4056 3.2328 21.7609 3.58809C22.1162 3.94339 22.2939 4.35894 22.2939 4.83473ZM9.95729 13.8068C9.95729 13.4113 9.92949 13.0452 9.87388 12.7084C9.81826 12.3717 9.72867 12.0473 9.60509 11.7352C9.4815 11.4232 9.29613 11.1776 9.04897 10.9984C8.8018 10.8192 8.50829 10.7296 8.16844 10.7296C7.69883 11.1992 7.13962 11.434 6.49082 11.434C5.82965 11.434 5.26427 11.1992 4.79466 10.7296C4.4548 10.7296 4.16284 10.8192 3.91877 10.9984C3.67469 11.1776 3.49087 11.4232 3.36728 11.7352C3.2437 12.0473 3.15565 12.3717 3.10313 12.7084C3.0506 13.0452 3.02434 13.4113 3.02434 13.8068C3.02434 14.1961 3.13557 14.5313 3.35801 14.8124C3.58046 15.0936 3.85234 15.2342 4.17366 15.2342H8.78018C9.10149 15.2342 9.378 15.0936 9.60972 14.8124C9.84144 14.5313 9.95729 14.1961 9.95729 13.8068ZM8.567 9.00562C8.567 8.42479 8.36463 7.92891 7.9599 7.518C7.55517 7.10709 7.06547 6.90164 6.49082 6.90164C5.91616 6.90164 5.42647 7.10709 5.02174 7.518C4.61701 7.92891 4.41464 8.42479 4.41464 9.00562C4.41464 9.5741 4.61701 10.0607 5.02174 10.4654C5.42647 10.8702 5.91616 11.0725 6.49082 11.0725C7.06547 11.0725 7.55517 10.8702 7.9599 10.4654C8.36463 10.0607 8.567 9.5741 8.567 9.00562ZM19.643 14.1961V13.5009C19.643 13.4082 19.6121 13.3279 19.5503 13.2599C19.4886 13.192 19.4113 13.158 19.3186 13.158H11.672C11.5793 13.158 11.4974 13.192 11.4264 13.2599C11.3553 13.3279 11.3198 13.4082 11.3198 13.5009V14.1961C11.3198 14.2888 11.3553 14.3691 11.4264 14.437C11.4974 14.505 11.5793 14.539 11.672 14.539H19.3186C19.4113 14.539 19.4886 14.5066 19.5503 14.4417C19.6121 14.3768 19.643 14.2949 19.643 14.1961ZM15.4999 11.434V10.7296C15.4999 10.6307 15.466 10.5489 15.398 10.484C15.33 10.4191 15.2497 10.3866 15.157 10.3866H11.672C11.5793 10.3866 11.4974 10.4206 11.4264 10.4886C11.3553 10.5566 11.3198 10.6369 11.3198 10.7296V11.434C11.3198 11.5267 11.3553 11.607 11.4264 11.675C11.4974 11.743 11.5793 11.7769 11.672 11.7769H15.157C15.2497 11.7769 15.33 11.7445 15.398 11.6796C15.466 11.6147 15.4999 11.5329 15.4999 11.434ZM19.643 11.434V10.7296C19.643 10.6307 19.6121 10.5489 19.5503 10.484C19.4886 10.4191 19.4113 10.3866 19.3186 10.3866H17.2332C17.1343 10.3866 17.0509 10.4191 16.9829 10.484C16.915 10.5489 16.881 10.6307 16.881 10.7296V11.434C16.881 11.5329 16.915 11.6147 16.9829 11.6796C17.0509 11.7445 17.1343 11.7769 17.2332 11.7769H19.3186C19.4113 11.7769 19.4886 11.7445 19.5503 11.6796C19.6121 11.6147 19.643 11.5329 19.643 11.434ZM19.643 8.65341V7.95826C19.643 7.8594 19.6121 7.77752 19.5503 7.71264C19.4886 7.64776 19.4113 7.61532 19.3186 7.61532H11.672C11.5793 7.61532 11.4974 7.64931 11.4264 7.71728C11.3553 7.78525 11.3198 7.86558 11.3198 7.95826V8.65341C11.3198 8.75228 11.3553 8.8357 11.4264 8.90367C11.4974 8.97164 11.5793 9.00562 11.672 9.00562H19.3186C19.4113 9.00562 19.4886 8.97164 19.5503 8.90367C19.6121 8.8357 19.643 8.75228 19.643 8.65341ZM10.0685 0.682373C9.92022 0.682373 9.79355 0.720992 9.6885 0.798231C9.58346 0.87547 9.53094 0.969701 9.53094 1.08092V4.76058C9.53094 4.86562 9.585 4.95831 9.69314 5.03864C9.80127 5.11897 9.9264 5.15913 10.0685 5.15913H12.6081C12.7564 5.15913 12.8816 5.11897 12.9835 5.03864C13.0855 4.95831 13.1364 4.86562 13.1364 4.76058V1.08092C13.1364 0.969701 13.0855 0.87547 12.9835 0.798231C12.8816 0.720992 12.7564 0.682373 12.6081 0.682373H10.0685Z" fill="#27A87D"/>
</g>
<defs>
<clipPath id="clip0">
<rect width="21.9521" height="16.6094" fill="white" transform="translate(0.34375 0.682373)"/>
</clipPath>
</defs>
</svg>
