<svg width="25" height="25" viewBox="0 0 25 25" fill="none" xmlns="http://www.w3.org/2000/svg">
<path fill-rule="evenodd" clip-rule="evenodd" d="M12.8983 3.09063C12.717 2.98708 12.5119 2.93262 12.3031 2.93262C12.0944 2.93262 11.8892 2.98708 11.7079 3.09063L3.30792 7.89063C3.07833 8.02198 2.89857 8.2255 2.79658 8.46956C2.6946 8.71362 2.67611 8.98454 2.74399 9.24019C2.81187 9.49584 2.96232 9.7219 3.17194 9.88322C3.38157 10.0445 3.63861 10.1321 3.90313 10.1322V18.5322C3.58487 18.5322 3.27964 18.6587 3.0546 18.8837C2.82955 19.1087 2.70313 19.414 2.70312 19.7322C2.70313 20.0505 2.82955 20.3557 3.0546 20.5808C3.27964 20.8058 3.58487 20.9322 3.90313 20.9322H20.7031C21.0214 20.9322 21.3266 20.8058 21.5517 20.5808C21.7767 20.3557 21.9031 20.0505 21.9031 19.7322C21.9031 19.414 21.7767 19.1087 21.5517 18.8837C21.3266 18.6587 21.0214 18.5322 20.7031 18.5322V10.1322C20.9676 10.1321 21.2247 10.0445 21.4343 9.88322C21.6439 9.7219 21.7944 9.49584 21.8623 9.24019C21.9301 8.98454 21.9117 8.71362 21.8097 8.46956C21.7077 8.2255 21.5279 8.02198 21.2983 7.89063L12.8983 3.09063ZM7.50313 11.3322C7.18487 11.3322 6.87964 11.4587 6.6546 11.6837C6.42955 11.9087 6.30313 12.214 6.30313 12.5322V16.1322C6.30313 16.4505 6.42955 16.7557 6.6546 16.9808C6.87964 17.2058 7.18487 17.3322 7.50313 17.3322C7.82138 17.3322 8.12661 17.2058 8.35165 16.9808C8.5767 16.7557 8.70312 16.4505 8.70312 16.1322V12.5322C8.70312 12.214 8.5767 11.9087 8.35165 11.6837C8.12661 11.4587 7.82138 11.3322 7.50313 11.3322ZM11.1031 12.5322C11.1031 12.214 11.2296 11.9087 11.4546 11.6837C11.6796 11.4587 11.9849 11.3322 12.3031 11.3322C12.6214 11.3322 12.9266 11.4587 13.1517 11.6837C13.3767 11.9087 13.5031 12.214 13.5031 12.5322V16.1322C13.5031 16.4505 13.3767 16.7557 13.1517 16.9808C12.9266 17.2058 12.6214 17.3322 12.3031 17.3322C11.9849 17.3322 11.6796 17.2058 11.4546 16.9808C11.2296 16.7557 11.1031 16.4505 11.1031 16.1322V12.5322ZM17.1031 11.3322C16.7849 11.3322 16.4796 11.4587 16.2546 11.6837C16.0296 11.9087 15.9031 12.214 15.9031 12.5322V16.1322C15.9031 16.4505 16.0296 16.7557 16.2546 16.9808C16.4796 17.2058 16.7849 17.3322 17.1031 17.3322C17.4214 17.3322 17.7266 17.2058 17.9517 16.9808C18.1767 16.7557 18.3031 16.4505 18.3031 16.1322V12.5322C18.3031 12.214 18.1767 11.9087 17.9517 11.6837C17.7266 11.4587 17.4214 11.3322 17.1031 11.3322Z" fill="#27A87D"/>
</svg>
