<svg width="25" height="25" viewBox="0 0 25 25" fill="none" xmlns="http://www.w3.org/2000/svg">
<path d="M3.67233 3.15527C2.63733 3.15527 1.79883 3.99527 1.79883 5.03027V19.2728C1.79883 20.3078 2.63883 21.1478 3.67233 21.1478H4.42233C5.45733 21.1478 6.29583 20.3078 6.29583 19.2728V5.02877C6.29583 3.99377 5.45583 3.15527 4.42083 3.15527H3.67383H3.67233ZM9.66783 3.15527C8.63283 3.15527 7.79283 3.99527 7.79283 5.03027V19.2728C7.79283 20.3078 8.63283 21.1478 9.66783 21.1478H10.4178C11.4513 21.1478 12.2898 20.3078 12.2898 19.2728V5.02877C12.2898 3.99527 11.4513 3.15527 10.4163 3.15527H9.66633H9.66783ZM18.2568 7.32077C18.077 6.87362 17.7318 6.51297 17.2929 6.31379C16.854 6.11461 16.3553 6.09222 15.9003 6.25127L15.0273 6.55727C14.7884 6.64114 14.569 6.77251 14.3823 6.94348C14.1956 7.11444 14.0454 7.32145 13.9408 7.55202C13.8362 7.7826 13.7795 8.03196 13.7739 8.28507C13.7683 8.53819 13.814 8.78981 13.9083 9.02477L18.3138 19.9808C18.6873 20.9108 19.7238 21.3803 20.6703 21.0503L21.5433 20.7443C21.7824 20.6604 22.002 20.529 22.1889 20.3579C22.3757 20.1869 22.526 19.9797 22.6306 19.7489C22.7351 19.5182 22.7919 19.2686 22.7973 19.0154C22.8028 18.7621 22.7569 18.5103 22.6623 18.2753L18.2568 7.32077Z" fill="#56756B"/>
</svg>
