<svg width="24" height="24" viewBox="0 0 24 24" fill="none" xmlns="http://www.w3.org/2000/svg">
<path d="M15 18.3C14.55 18.3 14.25 18.15 13.8 18L12 17.25L10.2 18C9.9 18.15 9.45 18.3 9 18.3C8.7 18.3 8.55 18.3 8.25 18.15L7.5 24L12 21L16.5 24L15.6 18.15C15.45 18.3 15.15 18.3 15 18.3Z" fill="#56756B"/>
<path d="M19.35 8.85C19.2 8.55 19.2 8.1 19.35 7.8L20.25 6C20.55 5.4 20.25 4.65 19.5 4.35L17.55 3.6C17.25 3.45 16.95 3.15 16.8 2.85L16.05 0.9C15.9 0.3 15.45 0 15 0C14.85 0 14.55 0 14.4 0.15L12.45 1.05H12C11.85 1.05 11.7 1.05 11.55 0.9L9.60002 0.15C9.45002 0 9.15002 0 9.00002 0C8.55002 0 8.10002 0.3 7.80002 0.75L7.05002 2.85C7.05002 3.15 6.75002 3.45 6.45002 3.6L4.35002 4.35C3.75002 4.5 3.45002 5.25 3.75002 6L4.65002 7.95C4.80002 8.25 4.80002 8.7 4.65002 9L3.75002 10.8C3.45002 11.4 3.75002 12.15 4.50002 12.45L6.45002 13.2C6.75002 13.35 7.05002 13.65 7.20002 13.95L7.95002 15.9C8.10002 16.5 8.55002 16.8 9.00002 16.8C9.15002 16.8 9.30002 16.8 9.45002 16.65L11.4 15.75C11.55 15.75 11.7 15.6 11.85 15.6C12 15.6 12.15 15.6 12.3 15.75L14.25 16.65C14.4 16.8 14.55 16.8 14.7 16.8C15.15 16.8 15.6 16.5 15.9 16.05L16.65 14.1C16.8 13.8 17.1 13.5 17.4 13.35L19.35 12.6C19.95 12.3 20.4 11.55 20.1 10.95L19.35 8.85V8.85ZM12 14.4C8.70002 14.4 6.00002 11.7 6.00002 8.4C6.00002 5.1 8.70002 2.4 12 2.4C15.3 2.4 18 5.1 18 8.4C18 11.7 15.3 14.4 12 14.4Z" fill="#56756B"/>
<path d="M16.5 8.40039C16.5 9.59386 16.0259 10.7385 15.182 11.5824C14.3381 12.4263 13.1935 12.9004 12 12.9004C10.8065 12.9004 9.66193 12.4263 8.81802 11.5824C7.97411 10.7385 7.5 9.59386 7.5 8.40039C7.5 7.20692 7.97411 6.06232 8.81802 5.21841C9.66193 4.3745 10.8065 3.90039 12 3.90039C13.1935 3.90039 14.3381 4.3745 15.182 5.21841C16.0259 6.06232 16.5 7.20692 16.5 8.40039V8.40039Z" fill="#56756B"/>
</svg>
