<svg width="21" height="16" viewBox="0 0 21 16" fill="none" xmlns="http://www.w3.org/2000/svg">
<path d="M19.5 0.148438H1.5C1.10218 0.148438 0.720644 0.306473 0.43934 0.587777C0.158035 0.869082 0 1.25061 0 1.64844V13.6484C0 14.0463 0.158035 14.4278 0.43934 14.7091C0.720644 14.9904 1.10218 15.1484 1.5 15.1484H19.5C19.8978 15.1484 20.2794 14.9904 20.5607 14.7091C20.842 14.4278 21 14.0463 21 13.6484V1.64844C21 1.25061 20.842 0.869082 20.5607 0.587777C20.2794 0.306473 19.8978 0.148438 19.5 0.148438ZM17.85 1.64844L10.5 6.73344L3.15 1.64844H17.85ZM1.5 13.6484V2.33094L10.0725 8.26344C10.198 8.35053 10.3472 8.3972 10.5 8.3972C10.6528 8.3972 10.802 8.35053 10.9275 8.26344L19.5 2.33094V13.6484H1.5Z" fill="#56756B"/>
</svg>
