<svg width="21" height="20" viewBox="0 0 21 20" fill="none" xmlns="http://www.w3.org/2000/svg">
<path d="M0.847876 5.04723L0.947865 5.04573C0.940151 4.53179 1.14666 4.0275 1.51381 3.66034L4.26852 0.905638L4.26858 0.905578C4.35354 0.820472 4.45445 0.752955 4.56553 0.706888C4.67661 0.660821 4.79569 0.637109 4.91594 0.637109C5.0362 0.637109 5.15527 0.660821 5.26635 0.706888C5.37743 0.752955 5.47834 0.820472 5.5633 0.905578L5.56336 0.905638L9.62635 4.96862L9.62641 4.96868C9.71151 5.05365 9.77903 5.15455 9.8251 5.26564C9.87117 5.37672 9.89488 5.49579 9.89488 5.61605C9.89488 5.7363 9.87117 5.85538 9.8251 5.96646C9.77903 6.07754 9.71151 6.17845 9.62641 6.26341L9.62635 6.26347L8.00725 7.88257L7.96512 7.9247L7.98212 7.98181C8.20614 8.73431 8.71961 10.1564 9.62635 11.0631C10.5331 11.9698 11.9551 12.4833 12.7076 12.7073L12.7648 12.7243L12.8069 12.6822L14.426 11.0631L14.426 11.063C14.511 10.9779 14.6119 10.9104 14.723 10.8644C14.8341 10.8183 14.9532 10.7946 15.0734 10.7946C15.1937 10.7946 15.3127 10.8183 15.4238 10.8644C15.5349 10.9104 15.6358 10.9779 15.7208 11.063L15.7208 11.0631L19.7838 15.1271L19.7839 15.1272C19.869 15.2121 19.9365 15.313 19.9826 15.4241C20.0286 15.5352 20.0523 15.6543 20.0523 15.7745C20.0523 15.8948 20.0286 16.0139 19.9826 16.1249C19.9365 16.236 19.869 16.3369 19.7839 16.4219L19.7838 16.422L17.0291 19.1767C16.6637 19.5421 16.1821 19.7426 15.6727 19.7426H15.645C14.2057 19.7182 9.21535 19.3373 5.28427 15.4062C1.35234 11.4743 0.971074 6.48269 0.947863 5.04561L0.847876 5.04723ZM0.847876 5.04723C0.871238 6.49365 1.25418 11.5175 5.21355 15.4769C9.17293 19.4363 14.1968 19.8182 15.6443 19.8426M0.847876 5.04723C0.83975 4.50584 1.05712 3.97562 1.4431 3.58963L4.19781 0.834927C4.29206 0.740518 4.404 0.665619 4.52722 0.614516C4.65045 0.563413 4.78254 0.537109 4.91594 0.537109C5.04934 0.537109 5.18144 0.563413 5.30466 0.614516C5.42789 0.665619 5.53982 0.740518 5.63407 0.834927L9.69706 4.89791C9.79147 4.99216 9.86637 5.1041 9.91747 5.22733C9.96857 5.35055 9.99488 5.48265 9.99488 5.61605C9.99488 5.74945 9.96857 5.88154 9.91747 6.00477C9.86637 6.12799 9.79147 6.23993 9.69706 6.33418L8.07796 7.95328C8.30142 8.70392 8.8093 10.1046 9.69706 10.9924C10.5848 11.8802 11.9855 12.388 12.7362 12.6115L14.3553 10.9924C14.4495 10.898 14.5615 10.8231 14.6847 10.772C14.8079 10.7209 14.94 10.6946 15.0734 10.6946C15.2068 10.6946 15.3389 10.7209 15.4621 10.772C15.5853 10.8231 15.6973 10.898 15.7915 10.9924L15.6443 19.8426M15.6443 19.8426H15.6727C16.209 19.8426 16.7159 19.6313 17.0998 19.2474L19.8545 16.4927M15.6443 19.8426L19.8545 16.4927M19.8545 16.4927C19.9489 16.3984 20.0238 16.2865 20.0749 16.1632M19.8545 16.4927L20.0749 16.1632M20.0749 16.1632C20.126 16.04 20.1523 15.9079 20.1523 15.7745M20.0749 16.1632L20.1523 15.7745M20.1523 15.7745C20.1523 15.6411 20.126 15.509 20.0749 15.3858M20.1523 15.7745L20.0749 15.3858M20.0749 15.3858C20.0238 15.2626 19.9489 15.1506 19.8545 15.0564L20.0749 15.3858ZM15.6609 17.9101L15.7032 17.9108L15.7332 17.8808L17.7708 15.8442L17.8416 15.7735L17.7708 15.7028L15.1441 13.0761L15.0734 13.0054L15.0027 13.0761L13.6883 14.3894L13.688 14.3897C13.5809 14.4977 13.4484 14.577 13.3026 14.6204C13.1568 14.6637 13.0024 14.6696 12.8537 14.6377L12.8531 14.6375C12.7981 14.6261 12.0823 14.4723 11.1715 14.1122C10.2594 13.7516 9.15972 13.1872 8.33049 12.3579C7.50126 11.5287 6.93683 10.429 6.57623 9.51695C6.21613 8.6061 6.06238 7.89032 6.05091 7.83534L6.0509 7.83531C6.01977 7.68636 6.02623 7.53201 6.06972 7.38619C6.11321 7.24038 6.19235 7.1077 6.29999 7.00014L6.30001 7.00012L7.61337 5.68676L7.68408 5.61605L7.61337 5.54534L4.98665 2.91862L4.91594 2.8479L4.84523 2.91862L2.80866 4.95519L2.77869 4.98516L2.77938 5.02753C2.79985 6.27905 3.13262 10.6639 6.57911 14.1103C10.0144 17.5466 14.3838 17.8886 15.6609 17.9101Z" fill="#56756B" stroke="white" stroke-width="0.2"/>
</svg>
