<svg width="30" height="30" viewBox="0 0 30 30" fill="none" xmlns="http://www.w3.org/2000/svg">
<rect width="30" height="30" fill="#48DC57"/>
<path d="M21.5 12.88V17.9688C21.5 18.4876 21.3015 18.9868 20.9452 19.3639C20.5889 19.741 20.1018 19.9675 19.5838 19.9969L19.4688 20H11.0312C10.5124 20 10.0132 19.8015 9.63611 19.4452C9.25898 19.0889 9.0325 18.6018 9.00313 18.0838L9 17.9688V12.88L15.0325 16.04C15.0996 16.0752 15.1742 16.0935 15.25 16.0935C15.3258 16.0935 15.4004 16.0752 15.4675 16.04L21.5 12.88ZM11.0312 10H19.4688C19.9722 9.99994 20.4578 10.1869 20.8313 10.5245C21.2047 10.8622 21.4395 11.3266 21.49 11.8275L15.25 15.0963L9.01 11.8275C9.05845 11.3464 9.27691 10.8984 9.62609 10.564C9.97528 10.2296 10.4323 10.0307 10.915 10.0031L11.0312 10H19.4688H11.0312Z" fill="white"/>
</svg>
