<svg width="20" height="19" viewBox="0 0 20 19" fill="none" xmlns="http://www.w3.org/2000/svg">
<path fill-rule="evenodd" clip-rule="evenodd" d="M15.5556 3.19328C15.5556 2.34637 15.2044 1.53414 14.5792 0.935289C13.9541 0.336434 13.1063 0 12.2222 0H7.77778C6.89372 0 6.04588 0.336434 5.42076 0.935289C4.79563 1.53414 4.44444 2.34637 4.44444 3.19328H3.33333C2.44928 3.19328 1.60143 3.52971 0.976311 4.12857C0.35119 4.72742 0 5.53964 0 6.38655V14.902C0 15.7489 0.35119 16.5611 0.976311 17.1599C1.60143 17.7588 2.44928 18.0952 3.33333 18.0952H16.6667C17.5507 18.0952 18.3986 17.7588 19.0237 17.1599C19.6488 16.5611 20 15.7489 20 14.902V6.38655C20 5.53964 19.6488 4.72742 19.0237 4.12857C18.3986 3.52971 17.5507 3.19328 16.6667 3.19328H15.5556ZM12.2222 2.12885H7.77778C7.48309 2.12885 7.20048 2.241 6.9921 2.44061C6.78373 2.64023 6.66667 2.91097 6.66667 3.19328H13.3333C13.3333 2.91097 13.2163 2.64023 13.0079 2.44061C12.7995 2.241 12.5169 2.12885 12.2222 2.12885ZM3.33333 5.32213H16.6667C16.9614 5.32213 17.244 5.43427 17.4523 5.63389C17.6607 5.83351 17.7778 6.10425 17.7778 6.38655V14.902C17.7778 15.1843 17.6607 15.455 17.4523 15.6546C17.244 15.8542 16.9614 15.9664 16.6667 15.9664H3.33333C3.03865 15.9664 2.75603 15.8542 2.54766 15.6546C2.33929 15.455 2.22222 15.1843 2.22222 14.902V6.38655C2.22222 6.10425 2.33929 5.83351 2.54766 5.63389C2.75603 5.43427 3.03865 5.32213 3.33333 5.32213Z" fill="#56756B"/>
</svg>
