<svg width="21" height="17" viewBox="0 0 21 17" fill="none" xmlns="http://www.w3.org/2000/svg">
<path d="M8.3125 8.20898C9.4635 8.20898 10.3125 7.35998 10.3125 6.20898C10.3125 5.05798 9.4635 4.20898 8.3125 4.20898C7.1615 4.20898 6.3125 5.05798 6.3125 6.20898C6.3125 7.35998 7.1605 8.20898 8.3125 8.20898Z" fill="#56756B"/>
<path d="M18.5977 0.210938H2.59766C1.49466 0.210938 0.597656 1.05194 0.597656 2.08594V14.3359C0.597656 15.3699 1.49466 16.2109 2.59766 16.2109H18.5977C19.7007 16.2109 20.5977 15.3699 20.5977 14.3359V2.08594C20.5977 1.05194 19.7007 0.210938 18.5977 0.210938ZM18.5977 14.2109L2.59766 14.1999V2.21094L18.5977 2.22194V14.2109Z" fill="#56756B"/>
<path d="M12.5977 5.21094H16.5977V7.21094H12.5977V5.21094ZM13.5977 9.21094H16.5977V11.2109H13.5977V9.21094ZM12.0277 11.7469C12.0277 10.3729 10.3517 8.96094 8.31266 8.96094C6.27366 8.96094 4.59766 10.3729 4.59766 11.7469V12.2109H12.0277V11.7469Z" fill="#56756B"/>
</svg>
