<svg width="15" height="21" viewBox="0 0 15 21" fill="none" xmlns="http://www.w3.org/2000/svg">
<path d="M7.43359 0.249573C3.56359 0.249573 0.433594 3.37957 0.433594 7.24957C0.433594 12.4996 7.43359 20.2496 7.43359 20.2496C7.43359 20.2496 14.4336 12.4996 14.4336 7.24957C14.4336 3.37957 11.3036 0.249573 7.43359 0.249573ZM7.43359 9.74957C6.77055 9.74957 6.13467 9.48618 5.66583 9.01734C5.19699 8.5485 4.93359 7.91261 4.93359 7.24957C4.93359 6.58653 5.19699 5.95065 5.66583 5.48181C6.13467 5.01296 6.77055 4.74957 7.43359 4.74957C8.09663 4.74957 8.73252 5.01296 9.20136 5.48181C9.6702 5.95065 9.93359 6.58653 9.93359 7.24957C9.93359 7.91261 9.6702 8.5485 9.20136 9.01734C8.73252 9.48618 8.09663 9.74957 7.43359 9.74957Z" fill="#56756B"/>
</svg>
