<svg width="19" height="21" viewBox="0 0 19 21" fill="none" xmlns="http://www.w3.org/2000/svg">
<path d="M16.5059 20.4783H5.25586C4.85816 20.4779 4.47686 20.3197 4.19564 20.0385C3.91442 19.7573 3.75626 19.376 3.75586 18.9783V14.4783H5.25586V18.9783H16.5059V2.47827H9.75586V0.978271H16.5059C16.9036 0.978669 17.2849 1.13683 17.5661 1.41805C17.8473 1.69927 18.0055 2.08057 18.0059 2.47827V18.9783C18.0055 19.376 17.8473 19.7573 17.5661 20.0385C17.2849 20.3197 16.9036 20.4779 16.5059 20.4783Z" fill="#56756B"/>
<path d="M9.75586 9.97827H15.0059V11.4783H9.75586V9.97827Z" fill="#56756B"/>
<path d="M9.00586 9.97827H15.0059V11.4783H9.00586V9.97827Z" fill="#56756B"/>
<path d="M8.25586 9.97827H15.0059V11.4783H8.25586V9.97827Z" fill="#56756B"/>
<path d="M3.75586 16.7283C2.7616 16.7273 1.80835 16.3319 1.10531 15.6288C0.402259 14.9258 0.00685214 13.9725 0.00585938 12.9783V4.72827H1.50586V12.9783C1.50586 13.575 1.74291 14.1473 2.16487 14.5693C2.58683 14.9912 3.15912 15.2283 3.75586 15.2283C4.3526 15.2283 4.92489 14.9912 5.34685 14.5693C5.76881 14.1473 6.00586 13.575 6.00586 12.9783V6.22827C6.00586 6.02936 5.92684 5.83859 5.78619 5.69794C5.64554 5.55729 5.45477 5.47827 5.25586 5.47827C5.05695 5.47827 4.86618 5.55729 4.72553 5.69794C4.58488 5.83859 4.50586 6.02936 4.50586 6.22827V13.7283H3.00586V6.22827C3.00586 5.63153 3.24291 5.05924 3.66487 4.63728C4.08683 4.21532 4.65912 3.97827 5.25586 3.97827C5.8526 3.97827 6.42489 4.21532 6.84685 4.63728C7.26881 5.05924 7.50586 5.63153 7.50586 6.22827V12.9783C7.50487 13.9725 7.10946 14.9258 6.40641 15.6288C5.70337 16.3319 4.75012 16.7273 3.75586 16.7283Z" fill="#56756B"/>
</svg>
