<svg width="22" height="22" viewBox="0 0 22 22" fill="none" xmlns="http://www.w3.org/2000/svg">
<path d="M21.5977 10.4199H18.7336C18.3281 6.98867 15.607 4.26758 12.1758 3.86211V0.998047C12.1758 0.894922 12.0914 0.810547 11.9883 0.810547H10.582C10.4789 0.810547 10.3945 0.894922 10.3945 0.998047V3.86211C6.96328 4.26758 4.24219 6.98867 3.83672 10.4199H0.972656C0.869531 10.4199 0.785156 10.5043 0.785156 10.6074V12.0137C0.785156 12.1168 0.869531 12.2012 0.972656 12.2012H3.83672C4.24219 15.6324 6.96328 18.3535 10.3945 18.759V21.623C10.3945 21.7262 10.4789 21.8105 10.582 21.8105H11.9883C12.0914 21.8105 12.1758 21.7262 12.1758 21.623V18.759C15.607 18.3535 18.3281 15.6324 18.7336 12.2012H21.5977C21.7008 12.2012 21.7852 12.1168 21.7852 12.0137V10.6074C21.7852 10.5043 21.7008 10.4199 21.5977 10.4199ZM11.2852 17.0293C8.12578 17.0293 5.56641 14.4699 5.56641 11.3105C5.56641 8.15117 8.12578 5.5918 11.2852 5.5918C14.4445 5.5918 17.0039 8.15117 17.0039 11.3105C17.0039 14.4699 14.4445 17.0293 11.2852 17.0293Z" fill="#56756B"/>
<path d="M11.2852 8.49805C10.5328 8.49805 9.82969 8.78867 9.29766 9.32305C8.76563 9.85508 8.47266 10.5582 8.47266 11.3105C8.47266 12.0629 8.76563 12.766 9.29766 13.298C9.82969 13.8277 10.5352 14.123 11.2852 14.123C12.0352 14.123 12.7406 13.8301 13.2727 13.298C13.8023 12.766 14.0977 12.0605 14.0977 11.3105C14.0977 10.5605 13.8047 9.85508 13.2727 9.32305C12.7406 8.78867 12.0375 8.49805 11.2852 8.49805Z" fill="#56756B"/>
</svg>
