<svg width="22" height="21" viewBox="0 0 22 21" fill="none" xmlns="http://www.w3.org/2000/svg">
<path d="M5.21901 11.389H16.1523V13.4423H17.219V10.3223H11.219V8.18896H10.1523V10.3223H4.15234V13.4423H5.21901V11.389Z" fill="#56756B"/>
<path d="M8.01953 14.189H1.35286C0.999243 14.189 0.660104 14.3294 0.410055 14.5795C0.160007 14.8295 0.0195313 15.1687 0.0195312 15.5223V19.5223C0.0195313 19.8759 0.160007 20.2151 0.410055 20.4651C0.660104 20.7152 0.999243 20.8556 1.35286 20.8556H8.01953C8.37315 20.8556 8.71229 20.7152 8.96234 20.4651C9.21239 20.2151 9.35287 19.8759 9.35287 19.5223V15.5223C9.35287 15.1687 9.21239 14.8295 8.96234 14.5795C8.71229 14.3294 8.37315 14.189 8.01953 14.189ZM1.35286 19.5223V15.5223H8.01953V19.5223H1.35286Z" fill="#56756B"/>
<path d="M20.0195 14.189H13.3529C12.9992 14.189 12.6601 14.3294 12.4101 14.5795C12.16 14.8295 12.0195 15.1687 12.0195 15.5223V19.5223C12.0195 19.8759 12.16 20.2151 12.4101 20.4651C12.6601 20.7152 12.9992 20.8556 13.3529 20.8556H20.0195C20.3732 20.8556 20.7123 20.7152 20.9623 20.4651C21.2124 20.2151 21.3529 19.8759 21.3529 19.5223V15.5223C21.3529 15.1687 21.2124 14.8295 20.9623 14.5795C20.7123 14.3294 20.3732 14.189 20.0195 14.189ZM13.3529 19.5223V15.5223H20.0195V19.5223H13.3529Z" fill="#56756B"/>
<path d="M7.35286 7.52165H14.0195C14.3732 7.52165 14.7123 7.38117 14.9623 7.13112C15.2124 6.88107 15.3529 6.54194 15.3529 6.18831V2.18831C15.3529 1.83469 15.2124 1.49555 14.9623 1.2455C14.7123 0.995456 14.3732 0.85498 14.0195 0.85498H7.35286C6.99924 0.85498 6.6601 0.995456 6.41006 1.2455C6.16001 1.49555 6.01953 1.83469 6.01953 2.18831V6.18831C6.01953 6.54194 6.16001 6.88107 6.41006 7.13112C6.6601 7.38117 6.99924 7.52165 7.35286 7.52165ZM7.35286 2.18831H14.0195V6.18831H7.35286V2.18831Z" fill="#56756B"/>
</svg>
