<svg width="21" height="27" viewBox="0 0 21 27" fill="none" xmlns="http://www.w3.org/2000/svg">
<path fill-rule="evenodd" clip-rule="evenodd" d="M3.12381 0.149844C2.92652 0.247501 2.76062 0.403215 2.64649 0.597963C2.48872 0.867174 2.47161 0.9736 2.47161 1.6857V2.47501H2.96661H3.46161L3.4619 2.03305C3.46225 1.46683 3.62807 1.17089 4.00626 1.06143C4.19146 1.0079 5.5426 0.990218 8.3579 1.00457L12.4409 1.02536L12.4593 4.06609C12.4763 6.87453 12.4878 7.12719 12.6102 7.37342C12.6831 7.52001 12.8422 7.71094 12.9638 7.79771C13.1826 7.95377 13.2174 7.95575 16.3317 7.99076L19.4785 8.02612L19.4965 15.1875C19.5162 22.9967 19.5313 22.687 19.1164 22.9591C18.9411 23.0741 18.7016 23.0922 16.9468 23.1237L14.9741 23.1591L14.6209 23.601L14.2677 24.043H16.9342C19.5548 24.043 19.6054 24.0403 19.8789 23.8866C20.032 23.8006 20.2273 23.6176 20.3129 23.48L20.4685 23.2298L20.4874 15.6332L20.5063 8.03651L16.4674 4.01829L12.4284 0L7.92732 7.06758e-05C3.4858 0.000141391 3.42222 0.0021214 3.12381 0.149844ZM0.809812 3.14595C0.461472 3.27034 0.170976 3.58248 0.0720462 3.9386C0.0279203 4.09756 -0.00149686 4.97372 5.88665e-05 6.08146C0.00345317 8.39822 0.0574082 8.60548 0.739098 8.91846C1.00421 9.04023 1.3092 9.04844 5.59932 9.04992C10.7534 9.05169 10.5783 9.06845 10.9646 8.53533L11.1695 8.2524V6.09921C11.1695 3.66542 11.1574 3.59945 10.651 3.26426L10.3668 3.07609L5.72972 3.06046C1.86092 3.04745 1.04579 3.06166 0.809812 3.14595ZM3.53254 4.55282C4.49992 5.193 3.92119 6.57646 2.68601 6.57646H2.40089V7.2129V7.84933H2.01196H1.62303V6.12127V4.39329L1.85285 4.36076C1.97922 4.34294 2.34276 4.33509 2.6607 4.34337C3.15846 4.35631 3.27952 4.38537 3.53254 4.55282ZM6.36091 4.52998C6.56047 4.64016 6.74985 4.82642 6.88519 5.04542C7.07704 5.35586 7.09727 5.44609 7.09946 6.00007C7.10158 6.54676 7.07973 6.65185 6.89403 6.98838C6.5348 7.63938 5.95042 7.87648 4.89358 7.79997L4.31019 7.75775V6.0751V4.39244L4.61073 4.3614C4.77606 4.34436 5.16711 4.33651 5.47988 4.34393C5.93337 4.35468 6.11172 4.3923 6.36091 4.52998ZM9.67057 4.68258C9.69023 4.98814 9.67708 5.01989 9.51366 5.06091C9.41551 5.08559 9.07968 5.09429 8.76733 5.08028L8.1995 5.05483V5.356V5.65717H8.87129H9.54307V6.0461V6.43504H8.87129H8.1995V7.14218V7.84933H7.77521H7.35092V6.07969V4.31006L8.50003 4.32951L9.64915 4.34895L9.67057 4.68258ZM2.40089 5.44503V5.86932H2.66798C3.02389 5.86932 3.24947 5.70469 3.24947 5.44503C3.24947 5.18537 3.02389 5.02074 2.66798 5.02074H2.40089V5.44503ZM5.08805 6.09129V7.16191L5.43957 7.12026C5.9181 7.06355 6.0671 6.96928 6.22394 6.62377C6.47936 6.06117 6.33694 5.31117 5.93663 5.11119C5.83939 5.0626 5.60872 5.02237 5.42394 5.0218L5.08805 5.02074V6.09129ZM2.47161 16.4388C2.47161 24.0003 2.43653 23.4975 2.98881 23.8556L3.27775 24.043H5.95247H8.62711L8.28959 23.5882L7.95199 23.1335L5.94723 23.1286L3.94247 23.1237L3.70204 22.8833L3.46161 22.6428V16.1654V9.68791H2.96661H2.47161V16.4388ZM5.61523 11.7001C5.40499 11.9103 5.39191 12.1839 5.58305 12.3751C5.72215 12.5142 5.81874 12.5165 11.4524 12.5165C17.086 12.5165 17.1826 12.5142 17.3217 12.3751C17.5128 12.1839 17.4998 11.9103 17.2895 11.7001L17.116 11.5265H11.4524H5.78876L5.61523 11.7001ZM5.62796 14.5017C5.50442 14.5988 5.44162 14.7162 5.44162 14.8501C5.44162 14.9839 5.50442 15.1013 5.62796 15.1985C5.81295 15.344 5.85537 15.3451 11.4651 15.3451H17.116L17.2895 15.1715C17.385 15.076 17.4631 14.9314 17.4631 14.8501C17.4631 14.7688 17.385 14.6241 17.2895 14.5287L17.116 14.3551H11.4651C5.85537 14.3551 5.81295 14.3561 5.62796 14.5017ZM10.2672 17.4687C10.1572 17.5971 10.1404 17.8649 10.1088 19.9968L10.0734 22.3812L9.38312 22.3917C8.56375 22.404 8.48235 22.4282 8.48235 22.6592C8.48235 22.9014 11.2234 26.4737 11.4328 26.5044C11.6006 26.529 11.7185 26.3893 13.3869 24.1887C14.1949 23.123 14.4244 22.7733 14.4081 22.6329C14.3872 22.4534 14.3805 22.4516 13.6092 22.4166L12.8313 22.3812L12.7959 20.0019C12.7631 17.7895 12.7511 17.6122 12.6259 17.4739C12.5005 17.3354 12.4185 17.3251 11.4407 17.3251C10.4724 17.3251 10.3806 17.3363 10.2672 17.4687Z" fill="#48DC57"/>
</svg>
