<svg width="24" height="20" viewBox="0 0 24 20" fill="none" xmlns="http://www.w3.org/2000/svg">
<path d="M7.86372 13.4365C7.77548 13.4365 7.68723 13.4494 7.60304 13.4767C7.12452 13.6322 6.62125 13.7319 6.0914 13.7319C5.56155 13.7319 5.05828 13.6322 4.57939 13.4767C4.4952 13.4494 4.40732 13.4365 4.31908 13.4365C2.02761 13.4365 0.171469 15.3004 0.183653 17.5948C0.188823 18.5644 0.985999 19.3442 1.95598 19.3442H10.2268C11.1968 19.3442 11.994 18.5644 11.9991 17.5948C12.0113 15.3004 10.1552 13.4365 7.86372 13.4365ZM6.0914 12.2549C8.04908 12.2549 9.63605 10.668 9.63605 8.7103C9.63605 6.75262 8.04908 5.16565 6.0914 5.16565C4.13372 5.16565 2.54675 6.75262 2.54675 8.7103C2.54675 10.668 4.13372 12.2549 6.0914 12.2549ZM22.0423 0.439453H7.86372C6.88636 0.439453 6.0914 1.261 6.0914 2.27049V3.9841C6.95615 3.9841 7.75665 4.23444 8.4545 4.64134V2.80255H21.4515V13.4365H19.0884V11.0734H14.3622V13.4365H11.5472C12.2524 14.0527 12.7701 14.8665 13.0127 15.7996H22.0423C23.0197 15.7996 23.8146 14.978 23.8146 13.9686V2.27049C23.8146 1.261 23.0197 0.439453 22.0423 0.439453Z" fill="#56756B"/>
</svg>
