<svg width="24" height="25" viewBox="0 0 24 25" fill="none" xmlns="http://www.w3.org/2000/svg">
<g clipPath="url(#clip0)">
<path d="M21.75 5.34961C21.9489 5.34961 22.1397 5.42863 22.2803 5.56928C22.421 5.70993 22.5 5.9007 22.5 6.09961V19.5996C22.5 19.7985 22.421 19.9893 22.2803 20.1299C22.1397 20.2706 21.9489 20.3496 21.75 20.3496H2.25C2.05109 20.3496 1.86032 20.2706 1.71967 20.1299C1.57902 19.9893 1.5 19.7985 1.5 19.5996V6.09961C1.5 5.9007 1.57902 5.70993 1.71967 5.56928C1.86032 5.42863 2.05109 5.34961 2.25 5.34961H21.75ZM2.25 3.84961C1.65326 3.84961 1.08097 4.08666 0.65901 4.50862C0.237053 4.93058 0 5.50287 0 6.09961L0 19.5996C0 20.1963 0.237053 20.7686 0.65901 21.1906C1.08097 21.6126 1.65326 21.8496 2.25 21.8496H21.75C22.3467 21.8496 22.919 21.6126 23.341 21.1906C23.7629 20.7686 24 20.1963 24 19.5996V6.09961C24 5.50287 23.7629 4.93058 23.341 4.50862C22.919 4.08666 22.3467 3.84961 21.75 3.84961H2.25Z" fill="#27A87D"/>
<path d="M7.5 12.8496C7.5 12.6507 7.57902 12.4599 7.71967 12.3193C7.86032 12.1786 8.05109 12.0996 8.25 12.0996H18.75C18.9489 12.0996 19.1397 12.1786 19.2803 12.3193C19.421 12.4599 19.5 12.6507 19.5 12.8496C19.5 13.0485 19.421 13.2393 19.2803 13.3799C19.1397 13.5206 18.9489 13.5996 18.75 13.5996H8.25C8.05109 13.5996 7.86032 13.5206 7.71967 13.3799C7.57902 13.2393 7.5 13.0485 7.5 12.8496ZM7.5 9.09961C7.5 8.9007 7.57902 8.70993 7.71967 8.56928C7.86032 8.42863 8.05109 8.34961 8.25 8.34961H18.75C18.9489 8.34961 19.1397 8.42863 19.2803 8.56928C19.421 8.70993 19.5 8.9007 19.5 9.09961C19.5 9.29852 19.421 9.48929 19.2803 9.62994C19.1397 9.77059 18.9489 9.84961 18.75 9.84961H8.25C8.05109 9.84961 7.86032 9.77059 7.71967 9.62994C7.57902 9.48929 7.5 9.29852 7.5 9.09961ZM7.5 16.5996C7.5 16.4007 7.57902 16.2099 7.71967 16.0693C7.86032 15.9286 8.05109 15.8496 8.25 15.8496H18.75C18.9489 15.8496 19.1397 15.9286 19.2803 16.0693C19.421 16.2099 19.5 16.4007 19.5 16.5996C19.5 16.7985 19.421 16.9893 19.2803 17.1299C19.1397 17.2706 18.9489 17.3496 18.75 17.3496H8.25C8.05109 17.3496 7.86032 17.2706 7.71967 17.1299C7.57902 16.9893 7.5 16.7985 7.5 16.5996ZM6 9.09961C6 9.29852 5.92098 9.48929 5.78033 9.62994C5.63968 9.77059 5.44891 9.84961 5.25 9.84961C5.05109 9.84961 4.86032 9.77059 4.71967 9.62994C4.57902 9.48929 4.5 9.29852 4.5 9.09961C4.5 8.9007 4.57902 8.70993 4.71967 8.56928C4.86032 8.42863 5.05109 8.34961 5.25 8.34961C5.44891 8.34961 5.63968 8.42863 5.78033 8.56928C5.92098 8.70993 6 8.9007 6 9.09961ZM6 12.8496C6 13.0485 5.92098 13.2393 5.78033 13.3799C5.63968 13.5206 5.44891 13.5996 5.25 13.5996C5.05109 13.5996 4.86032 13.5206 4.71967 13.3799C4.57902 13.2393 4.5 13.0485 4.5 12.8496C4.5 12.6507 4.57902 12.4599 4.71967 12.3193C4.86032 12.1786 5.05109 12.0996 5.25 12.0996C5.44891 12.0996 5.63968 12.1786 5.78033 12.3193C5.92098 12.4599 6 12.6507 6 12.8496ZM6 16.5996C6 16.7985 5.92098 16.9893 5.78033 17.1299C5.63968 17.2706 5.44891 17.3496 5.25 17.3496C5.05109 17.3496 4.86032 17.2706 4.71967 17.1299C4.57902 16.9893 4.5 16.7985 4.5 16.5996C4.5 16.4007 4.57902 16.2099 4.71967 16.0693C4.86032 15.9286 5.05109 15.8496 5.25 15.8496C5.44891 15.8496 5.63968 15.9286 5.78033 16.0693C5.92098 16.2099 6 16.4007 6 16.5996Z" fill="#27A87D"/>
</g>
<defs>
<clipPath id="clip0">
<rect width="24" height="24" fill="white" transform="translate(0 0.849609)"/>
</clipPath>
</defs>
</svg>
