<svg width="21" height="25" viewBox="0 0 21 25" fill="none" xmlns="http://www.w3.org/2000/svg">
<mask id="path-1-outside-1" maskUnits="userSpaceOnUse" x="-0.402344" y="-0.492188" width="22" height="25" fill="black">
<rect fill="white" x="-0.402344" y="-0.492188" width="22" height="25"/>
<path d="M14.7681 15.0299C14.2588 13.1709 13.1703 11.8081 11.4614 10.9237C10.7747 10.5685 10.0385 10.3646 9.26845 10.2669C9.13348 10.2499 9.04151 10.2794 8.94635 10.3735C8.37397 10.9393 7.79564 11.5002 7.21868 12.062C6.90847 12.3646 6.65408 12.3628 6.33701 12.0603C6.2121 11.9411 6.08353 11.7359 5.95634 11.7354C5.8296 11.7354 5.70057 11.9411 5.57658 12.0607C5.30023 12.3271 5.02754 12.5971 4.75118 12.8639C4.46339 13.1419 4.20031 13.1441 3.91846 12.8702C3.15209 12.125 2.38709 11.3789 1.62208 10.6319C1.34253 10.3588 1.33932 10.0911 1.61614 9.81842C1.97484 9.46412 2.3331 9.10936 2.70187 8.76488C2.81397 8.66001 2.80985 8.59665 2.6973 8.50562C2.59801 8.4253 2.51245 8.32891 2.42094 8.23967C2.14368 7.96926 2.14322 7.70063 2.42415 7.42575C3.19372 6.67341 3.96422 5.92197 4.73471 5.17052C6.07621 3.86219 7.41817 2.55385 8.76013 1.24551C9.0923 0.921553 9.34212 0.924231 9.67749 1.25221C10.0092 1.57661 10.0225 1.58822 10.34 1.24953C11.2867 0.238827 12.8052 0.316916 13.6475 1.14601C14.5105 1.99562 14.5178 3.36777 13.6539 4.24148C13.5643 4.33251 13.481 4.43425 13.3776 4.50698C13.1845 4.64264 13.2271 4.74348 13.3863 4.87557C13.9079 5.30796 13.9134 5.57927 13.3877 6.05271C12.9352 6.45967 12.5087 6.8943 12.0507 7.33561C12.5394 7.53999 12.9946 7.72695 13.4206 7.97238C16.1343 9.53685 17.7983 11.8215 18.3739 14.8496C18.4032 15.0031 18.4645 15.0402 18.6109 15.0335C18.8159 15.0237 19.0241 15.0178 19.2272 15.0411C20.0146 15.1307 20.5893 15.747 20.5921 16.5252C20.5994 18.4948 20.5998 20.4645 20.5916 22.4341C20.5879 23.286 19.9176 23.9134 19.0401 23.9134C13.7281 23.9138 8.41652 23.9138 3.10451 23.9134C2.28277 23.9134 1.63032 23.3257 1.57816 22.5265C1.56077 22.2601 1.56855 21.9915 1.57221 21.7242C1.58365 20.8474 2.23976 20.2119 3.14248 20.211C6.07667 20.2088 9.0104 20.2106 11.9446 20.2101C12.398 20.2101 12.5984 20.0125 12.5989 19.572C12.5989 19.4605 12.6039 19.3489 12.598 19.2378C12.5847 19.0031 12.7027 18.6992 12.5499 18.5533C12.409 18.419 12.1002 18.5163 11.8659 18.5158C9.78547 18.5123 7.70459 18.5328 5.62462 18.5038C3.96285 18.4801 2.6488 17.3909 2.29695 15.8068C2.26309 15.6542 2.21597 15.5997 2.05125 15.6078C1.74699 15.6229 1.44181 15.6162 1.13709 15.6104C0.811326 15.6029 0.597656 15.4052 0.597656 15.1241C0.597656 14.8304 0.816817 14.6305 1.15173 14.6301C2.19584 14.6283 3.23994 14.6283 4.28404 14.6305C4.62307 14.6314 4.84132 14.8282 4.83903 15.1209C4.83629 15.4195 4.62902 15.6055 4.28404 15.6109C4.00219 15.6149 3.71989 15.6171 3.43805 15.6087C3.29804 15.6046 3.27791 15.6377 3.31451 15.7715C3.59407 16.7934 4.57229 17.5274 5.71018 17.5314C7.94297 17.539 10.1762 17.5323 12.409 17.5368C12.5554 17.5372 12.6099 17.5051 12.603 17.3525C12.5902 17.0705 12.5957 16.7876 12.6007 16.5056C12.6153 15.6872 13.2815 15.0415 14.1206 15.0303C14.3252 15.0277 14.5301 15.0299 14.7681 15.0299ZM11.0762 22.946C13.6896 22.946 16.3026 22.946 18.9161 22.946C19.38 22.946 19.5946 22.7545 19.5955 22.3248C19.5978 20.4225 19.5978 18.5203 19.5951 16.618C19.5946 16.2173 19.38 16.0147 18.9724 16.0143C17.3875 16.0134 15.803 16.0134 14.2181 16.0138C13.8077 16.0138 13.6068 16.2124 13.6064 16.6185C13.6055 17.5993 13.6055 18.5801 13.6068 19.5609C13.6082 20.5609 12.9658 21.1905 11.9409 21.1905C9.05341 21.1905 6.16589 21.1905 3.27791 21.1905C3.21706 21.1905 3.15575 21.1874 3.0949 21.1914C2.79292 21.2119 2.5884 21.4154 2.57925 21.7117C2.57376 21.8973 2.57788 22.0834 2.57788 22.269C2.57834 22.7728 2.75769 22.946 3.28111 22.946C5.87993 22.946 8.47783 22.9455 11.0762 22.946ZM9.18106 2.18304C9.10465 2.2754 9.0406 2.36867 8.96099 2.44631C7.16835 4.19686 5.37389 5.94606 3.57943 7.69527C3.49753 7.77515 3.41472 7.82602 3.54832 7.95453C4.59425 8.96211 5.6324 9.97727 6.66827 10.9951C6.76755 11.0928 6.81651 11.0679 6.89841 10.9849C7.11437 10.7649 7.3381 10.5525 7.55909 10.3369C9.18564 8.7506 10.8122 7.16337 12.441 5.57927C12.522 5.50028 12.5609 5.45165 12.4589 5.35303C11.4106 4.33786 10.367 3.31779 9.32153 2.29995C9.2895 2.26871 9.25381 2.24328 9.18106 2.18304ZM9.97123 9.36371C10.0275 9.3887 10.0454 9.39986 10.0646 9.40432C13.0743 10.1335 14.9739 11.9585 15.7499 14.888C15.7838 15.0152 15.8392 15.033 15.9512 15.0317C16.3475 15.0272 16.7446 15.0156 17.1395 15.0353C17.3719 15.0469 17.3911 14.9714 17.3499 14.7764C17.0178 13.2053 16.3045 11.8202 15.2096 10.6279C14.1682 9.49401 12.9082 8.67117 11.428 8.17675C11.3525 8.15176 11.2789 8.10045 11.1979 8.17943C10.7957 8.57121 10.3908 8.95988 9.97123 9.36371ZM13.2916 2.70512C13.2934 1.95725 12.6245 1.39545 11.8654 1.49674C11.4102 1.55743 11.1416 1.87514 10.8383 2.15537C10.7285 2.25711 10.7518 2.30709 10.846 2.39767C11.2867 2.81891 11.7195 3.24729 12.1555 3.67299C12.4804 3.99025 12.4753 3.98401 12.8075 3.67566C13.0962 3.40793 13.2911 3.10449 13.2916 2.70512ZM3.54145 9.35211C3.51492 9.37175 3.49524 9.38335 3.47923 9.39896C3.22118 9.65019 2.96541 9.90365 2.70462 10.1522C2.62958 10.2236 2.67442 10.2611 2.72612 10.3115C3.2317 10.8032 3.73682 11.2954 4.2392 11.7903C4.306 11.8563 4.3513 11.8662 4.42267 11.7943C4.66059 11.5551 4.90263 11.3195 5.14787 11.0875C5.22611 11.0134 5.22107 10.9675 5.14375 10.8929C4.64092 10.4088 4.14357 9.91971 3.64348 9.43288C3.61237 9.40254 3.57485 9.37844 3.54145 9.35211Z"/>
</mask>
<path d="M14.7681 15.0299C14.2588 13.1709 13.1703 11.8081 11.4614 10.9237C10.7747 10.5685 10.0385 10.3646 9.26845 10.2669C9.13348 10.2499 9.04151 10.2794 8.94635 10.3735C8.37397 10.9393 7.79564 11.5002 7.21868 12.062C6.90847 12.3646 6.65408 12.3628 6.33701 12.0603C6.2121 11.9411 6.08353 11.7359 5.95634 11.7354C5.8296 11.7354 5.70057 11.9411 5.57658 12.0607C5.30023 12.3271 5.02754 12.5971 4.75118 12.8639C4.46339 13.1419 4.20031 13.1441 3.91846 12.8702C3.15209 12.125 2.38709 11.3789 1.62208 10.6319C1.34253 10.3588 1.33932 10.0911 1.61614 9.81842C1.97484 9.46412 2.3331 9.10936 2.70187 8.76488C2.81397 8.66001 2.80985 8.59665 2.6973 8.50562C2.59801 8.4253 2.51245 8.32891 2.42094 8.23967C2.14368 7.96926 2.14322 7.70063 2.42415 7.42575C3.19372 6.67341 3.96422 5.92197 4.73471 5.17052C6.07621 3.86219 7.41817 2.55385 8.76013 1.24551C9.0923 0.921553 9.34212 0.924231 9.67749 1.25221C10.0092 1.57661 10.0225 1.58822 10.34 1.24953C11.2867 0.238827 12.8052 0.316916 13.6475 1.14601C14.5105 1.99562 14.5178 3.36777 13.6539 4.24148C13.5643 4.33251 13.481 4.43425 13.3776 4.50698C13.1845 4.64264 13.2271 4.74348 13.3863 4.87557C13.9079 5.30796 13.9134 5.57927 13.3877 6.05271C12.9352 6.45967 12.5087 6.8943 12.0507 7.33561C12.5394 7.53999 12.9946 7.72695 13.4206 7.97238C16.1343 9.53685 17.7983 11.8215 18.3739 14.8496C18.4032 15.0031 18.4645 15.0402 18.6109 15.0335C18.8159 15.0237 19.0241 15.0178 19.2272 15.0411C20.0146 15.1307 20.5893 15.747 20.5921 16.5252C20.5994 18.4948 20.5998 20.4645 20.5916 22.4341C20.5879 23.286 19.9176 23.9134 19.0401 23.9134C13.7281 23.9138 8.41652 23.9138 3.10451 23.9134C2.28277 23.9134 1.63032 23.3257 1.57816 22.5265C1.56077 22.2601 1.56855 21.9915 1.57221 21.7242C1.58365 20.8474 2.23976 20.2119 3.14248 20.211C6.07667 20.2088 9.0104 20.2106 11.9446 20.2101C12.398 20.2101 12.5984 20.0125 12.5989 19.572C12.5989 19.4605 12.6039 19.3489 12.598 19.2378C12.5847 19.0031 12.7027 18.6992 12.5499 18.5533C12.409 18.419 12.1002 18.5163 11.8659 18.5158C9.78547 18.5123 7.70459 18.5328 5.62462 18.5038C3.96285 18.4801 2.6488 17.3909 2.29695 15.8068C2.26309 15.6542 2.21597 15.5997 2.05125 15.6078C1.74699 15.6229 1.44181 15.6162 1.13709 15.6104C0.811326 15.6029 0.597656 15.4052 0.597656 15.1241C0.597656 14.8304 0.816817 14.6305 1.15173 14.6301C2.19584 14.6283 3.23994 14.6283 4.28404 14.6305C4.62307 14.6314 4.84132 14.8282 4.83903 15.1209C4.83629 15.4195 4.62902 15.6055 4.28404 15.6109C4.00219 15.6149 3.71989 15.6171 3.43805 15.6087C3.29804 15.6046 3.27791 15.6377 3.31451 15.7715C3.59407 16.7934 4.57229 17.5274 5.71018 17.5314C7.94297 17.539 10.1762 17.5323 12.409 17.5368C12.5554 17.5372 12.6099 17.5051 12.603 17.3525C12.5902 17.0705 12.5957 16.7876 12.6007 16.5056C12.6153 15.6872 13.2815 15.0415 14.1206 15.0303C14.3252 15.0277 14.5301 15.0299 14.7681 15.0299ZM11.0762 22.946C13.6896 22.946 16.3026 22.946 18.9161 22.946C19.38 22.946 19.5946 22.7545 19.5955 22.3248C19.5978 20.4225 19.5978 18.5203 19.5951 16.618C19.5946 16.2173 19.38 16.0147 18.9724 16.0143C17.3875 16.0134 15.803 16.0134 14.2181 16.0138C13.8077 16.0138 13.6068 16.2124 13.6064 16.6185C13.6055 17.5993 13.6055 18.5801 13.6068 19.5609C13.6082 20.5609 12.9658 21.1905 11.9409 21.1905C9.05341 21.1905 6.16589 21.1905 3.27791 21.1905C3.21706 21.1905 3.15575 21.1874 3.0949 21.1914C2.79292 21.2119 2.5884 21.4154 2.57925 21.7117C2.57376 21.8973 2.57788 22.0834 2.57788 22.269C2.57834 22.7728 2.75769 22.946 3.28111 22.946C5.87993 22.946 8.47783 22.9455 11.0762 22.946ZM9.18106 2.18304C9.10465 2.2754 9.0406 2.36867 8.96099 2.44631C7.16835 4.19686 5.37389 5.94606 3.57943 7.69527C3.49753 7.77515 3.41472 7.82602 3.54832 7.95453C4.59425 8.96211 5.6324 9.97727 6.66827 10.9951C6.76755 11.0928 6.81651 11.0679 6.89841 10.9849C7.11437 10.7649 7.3381 10.5525 7.55909 10.3369C9.18564 8.7506 10.8122 7.16337 12.441 5.57927C12.522 5.50028 12.5609 5.45165 12.4589 5.35303C11.4106 4.33786 10.367 3.31779 9.32153 2.29995C9.2895 2.26871 9.25381 2.24328 9.18106 2.18304ZM9.97123 9.36371C10.0275 9.3887 10.0454 9.39986 10.0646 9.40432C13.0743 10.1335 14.9739 11.9585 15.7499 14.888C15.7838 15.0152 15.8392 15.033 15.9512 15.0317C16.3475 15.0272 16.7446 15.0156 17.1395 15.0353C17.3719 15.0469 17.3911 14.9714 17.3499 14.7764C17.0178 13.2053 16.3045 11.8202 15.2096 10.6279C14.1682 9.49401 12.9082 8.67117 11.428 8.17675C11.3525 8.15176 11.2789 8.10045 11.1979 8.17943C10.7957 8.57121 10.3908 8.95988 9.97123 9.36371ZM13.2916 2.70512C13.2934 1.95725 12.6245 1.39545 11.8654 1.49674C11.4102 1.55743 11.1416 1.87514 10.8383 2.15537C10.7285 2.25711 10.7518 2.30709 10.846 2.39767C11.2867 2.81891 11.7195 3.24729 12.1555 3.67299C12.4804 3.99025 12.4753 3.98401 12.8075 3.67566C13.0962 3.40793 13.2911 3.10449 13.2916 2.70512ZM3.54145 9.35211C3.51492 9.37175 3.49524 9.38335 3.47923 9.39896C3.22118 9.65019 2.96541 9.90365 2.70462 10.1522C2.62958 10.2236 2.67442 10.2611 2.72612 10.3115C3.2317 10.8032 3.73682 11.2954 4.2392 11.7903C4.306 11.8563 4.3513 11.8662 4.42267 11.7943C4.66059 11.5551 4.90263 11.3195 5.14787 11.0875C5.22611 11.0134 5.22107 10.9675 5.14375 10.8929C4.64092 10.4088 4.14357 9.91971 3.64348 9.43288C3.61237 9.40254 3.57485 9.37844 3.54145 9.35211Z" fill="#56756B"/>
<path d="M14.7681 15.0299C14.2588 13.1709 13.1703 11.8081 11.4614 10.9237C10.7747 10.5685 10.0385 10.3646 9.26845 10.2669C9.13348 10.2499 9.04151 10.2794 8.94635 10.3735C8.37397 10.9393 7.79564 11.5002 7.21868 12.062C6.90847 12.3646 6.65408 12.3628 6.33701 12.0603C6.2121 11.9411 6.08353 11.7359 5.95634 11.7354C5.8296 11.7354 5.70057 11.9411 5.57658 12.0607C5.30023 12.3271 5.02754 12.5971 4.75118 12.8639C4.46339 13.1419 4.20031 13.1441 3.91846 12.8702C3.15209 12.125 2.38709 11.3789 1.62208 10.6319C1.34253 10.3588 1.33932 10.0911 1.61614 9.81842C1.97484 9.46412 2.3331 9.10936 2.70187 8.76488C2.81397 8.66001 2.80985 8.59665 2.6973 8.50562C2.59801 8.4253 2.51245 8.32891 2.42094 8.23967C2.14368 7.96926 2.14322 7.70063 2.42415 7.42575C3.19372 6.67341 3.96422 5.92197 4.73471 5.17052C6.07621 3.86219 7.41817 2.55385 8.76013 1.24551C9.0923 0.921553 9.34212 0.924231 9.67749 1.25221C10.0092 1.57661 10.0225 1.58822 10.34 1.24953C11.2867 0.238827 12.8052 0.316916 13.6475 1.14601C14.5105 1.99562 14.5178 3.36777 13.6539 4.24148C13.5643 4.33251 13.481 4.43425 13.3776 4.50698C13.1845 4.64264 13.2271 4.74348 13.3863 4.87557C13.9079 5.30796 13.9134 5.57927 13.3877 6.05271C12.9352 6.45967 12.5087 6.8943 12.0507 7.33561C12.5394 7.53999 12.9946 7.72695 13.4206 7.97238C16.1343 9.53685 17.7983 11.8215 18.3739 14.8496C18.4032 15.0031 18.4645 15.0402 18.6109 15.0335C18.8159 15.0237 19.0241 15.0178 19.2272 15.0411C20.0146 15.1307 20.5893 15.747 20.5921 16.5252C20.5994 18.4948 20.5998 20.4645 20.5916 22.4341C20.5879 23.286 19.9176 23.9134 19.0401 23.9134C13.7281 23.9138 8.41652 23.9138 3.10451 23.9134C2.28277 23.9134 1.63032 23.3257 1.57816 22.5265C1.56077 22.2601 1.56855 21.9915 1.57221 21.7242C1.58365 20.8474 2.23976 20.2119 3.14248 20.211C6.07667 20.2088 9.0104 20.2106 11.9446 20.2101C12.398 20.2101 12.5984 20.0125 12.5989 19.572C12.5989 19.4605 12.6039 19.3489 12.598 19.2378C12.5847 19.0031 12.7027 18.6992 12.5499 18.5533C12.409 18.419 12.1002 18.5163 11.8659 18.5158C9.78547 18.5123 7.70459 18.5328 5.62462 18.5038C3.96285 18.4801 2.6488 17.3909 2.29695 15.8068C2.26309 15.6542 2.21597 15.5997 2.05125 15.6078C1.74699 15.6229 1.44181 15.6162 1.13709 15.6104C0.811326 15.6029 0.597656 15.4052 0.597656 15.1241C0.597656 14.8304 0.816817 14.6305 1.15173 14.6301C2.19584 14.6283 3.23994 14.6283 4.28404 14.6305C4.62307 14.6314 4.84132 14.8282 4.83903 15.1209C4.83629 15.4195 4.62902 15.6055 4.28404 15.6109C4.00219 15.6149 3.71989 15.6171 3.43805 15.6087C3.29804 15.6046 3.27791 15.6377 3.31451 15.7715C3.59407 16.7934 4.57229 17.5274 5.71018 17.5314C7.94297 17.539 10.1762 17.5323 12.409 17.5368C12.5554 17.5372 12.6099 17.5051 12.603 17.3525C12.5902 17.0705 12.5957 16.7876 12.6007 16.5056C12.6153 15.6872 13.2815 15.0415 14.1206 15.0303C14.3252 15.0277 14.5301 15.0299 14.7681 15.0299ZM11.0762 22.946C13.6896 22.946 16.3026 22.946 18.9161 22.946C19.38 22.946 19.5946 22.7545 19.5955 22.3248C19.5978 20.4225 19.5978 18.5203 19.5951 16.618C19.5946 16.2173 19.38 16.0147 18.9724 16.0143C17.3875 16.0134 15.803 16.0134 14.2181 16.0138C13.8077 16.0138 13.6068 16.2124 13.6064 16.6185C13.6055 17.5993 13.6055 18.5801 13.6068 19.5609C13.6082 20.5609 12.9658 21.1905 11.9409 21.1905C9.05341 21.1905 6.16589 21.1905 3.27791 21.1905C3.21706 21.1905 3.15575 21.1874 3.0949 21.1914C2.79292 21.2119 2.5884 21.4154 2.57925 21.7117C2.57376 21.8973 2.57788 22.0834 2.57788 22.269C2.57834 22.7728 2.75769 22.946 3.28111 22.946C5.87993 22.946 8.47783 22.9455 11.0762 22.946ZM9.18106 2.18304C9.10465 2.2754 9.0406 2.36867 8.96099 2.44631C7.16835 4.19686 5.37389 5.94606 3.57943 7.69527C3.49753 7.77515 3.41472 7.82602 3.54832 7.95453C4.59425 8.96211 5.6324 9.97727 6.66827 10.9951C6.76755 11.0928 6.81651 11.0679 6.89841 10.9849C7.11437 10.7649 7.3381 10.5525 7.55909 10.3369C9.18564 8.7506 10.8122 7.16337 12.441 5.57927C12.522 5.50028 12.5609 5.45165 12.4589 5.35303C11.4106 4.33786 10.367 3.31779 9.32153 2.29995C9.2895 2.26871 9.25381 2.24328 9.18106 2.18304ZM9.97123 9.36371C10.0275 9.3887 10.0454 9.39986 10.0646 9.40432C13.0743 10.1335 14.9739 11.9585 15.7499 14.888C15.7838 15.0152 15.8392 15.033 15.9512 15.0317C16.3475 15.0272 16.7446 15.0156 17.1395 15.0353C17.3719 15.0469 17.3911 14.9714 17.3499 14.7764C17.0178 13.2053 16.3045 11.8202 15.2096 10.6279C14.1682 9.49401 12.9082 8.67117 11.428 8.17675C11.3525 8.15176 11.2789 8.10045 11.1979 8.17943C10.7957 8.57121 10.3908 8.95988 9.97123 9.36371ZM13.2916 2.70512C13.2934 1.95725 12.6245 1.39545 11.8654 1.49674C11.4102 1.55743 11.1416 1.87514 10.8383 2.15537C10.7285 2.25711 10.7518 2.30709 10.846 2.39767C11.2867 2.81891 11.7195 3.24729 12.1555 3.67299C12.4804 3.99025 12.4753 3.98401 12.8075 3.67566C13.0962 3.40793 13.2911 3.10449 13.2916 2.70512ZM3.54145 9.35211C3.51492 9.37175 3.49524 9.38335 3.47923 9.39896C3.22118 9.65019 2.96541 9.90365 2.70462 10.1522C2.62958 10.2236 2.67442 10.2611 2.72612 10.3115C3.2317 10.8032 3.73682 11.2954 4.2392 11.7903C4.306 11.8563 4.3513 11.8662 4.42267 11.7943C4.66059 11.5551 4.90263 11.3195 5.14787 11.0875C5.22611 11.0134 5.22107 10.9675 5.14375 10.8929C4.64092 10.4088 4.14357 9.91971 3.64348 9.43288C3.61237 9.40254 3.57485 9.37844 3.54145 9.35211Z" stroke="#56756B" stroke-width="0.4" mask="url(#path-1-outside-1)"/>
<path d="M16.6356 17.0836C15.5724 17.0873 14.7267 17.9104 14.7321 18.9484L14.7321 18.9484L18.4275 18.9364L18.5275 18.9359C18.5275 18.9359 18.5275 18.9359 18.5275 18.9359C18.5227 17.9044 17.6779 17.0799 16.6356 17.0836ZM16.6356 17.0836L16.6359 17.1836L16.6356 17.0836ZM17.3227 18.9423C17.3215 19.3115 17.0111 19.6143 16.6241 19.6124C16.2467 19.61 15.9231 19.2865 15.9282 18.9316L15.9282 18.9316C15.9333 18.5682 16.2529 18.2602 16.6353 18.2626H16.6353C17.0223 18.2649 17.3239 18.5664 17.3227 18.9423ZM17.3227 18.9423L17.4227 18.9426L17.3227 18.9423Z" fill="#56756B" stroke="#56756B" stroke-width="0.2"/>
</svg>
