<svg width="21" height="21" viewBox="0 0 21 21" fill="none" xmlns="http://www.w3.org/2000/svg">
<path fill-rule="evenodd" clip-rule="evenodd" d="M10.4336 20.2703C4.91059 20.2703 0.433594 15.7933 0.433594 10.2703C0.433594 4.74732 4.91059 0.270325 10.4336 0.270325C15.9566 0.270325 20.4336 4.74732 20.4336 10.2703C20.4336 15.7933 15.9566 20.2703 10.4336 20.2703ZM18.4336 10.2703C18.4336 8.14859 17.5907 6.11376 16.0904 4.61347C14.5902 3.11318 12.5553 2.27032 10.4336 2.27032C8.31186 2.27032 6.27703 3.11318 4.77674 4.61347C3.27645 6.11376 2.43359 8.14859 2.43359 10.2703C2.43359 12.3921 3.27645 14.4269 4.77674 15.9272C6.27703 17.4275 8.31186 18.2703 10.4336 18.2703C12.5553 18.2703 14.5902 17.4275 16.0904 15.9272C17.5907 14.4269 18.4336 12.3921 18.4336 10.2703ZM14.4336 9.27032C14.6988 9.27032 14.9532 9.37568 15.1407 9.56322C15.3282 9.75075 15.4336 10.0051 15.4336 10.2703C15.4336 10.5355 15.3282 10.7899 15.1407 10.9774C14.9532 11.165 14.6988 11.2703 14.4336 11.2703H11.4336C10.3336 11.2703 9.43359 10.3703 9.43359 9.27032V5.27032C9.43359 5.00511 9.53895 4.75075 9.72649 4.56322C9.91402 4.37568 10.1684 4.27032 10.4336 4.27032C10.6988 4.27032 10.9532 4.37568 11.1407 4.56322C11.3282 4.75075 11.4336 5.00511 11.4336 5.27032V9.27032H14.4336Z" fill="#56756B"/>
</svg>
