<svg width="20" height="20" viewBox="0 0 20 20" fill="none" xmlns="http://www.w3.org/2000/svg">
<path d="M18.7367 3.08867L16.2406 0.594922C16.0645 0.418071 15.8553 0.277752 15.6248 0.182025C15.3943 0.0862976 15.1472 0.0370496 14.8977 0.0371094C14.3891 0.0371094 13.9109 0.236328 13.5523 0.594922L10.8664 3.28086C10.6896 3.45694 10.5492 3.66622 10.4535 3.89669C10.3578 4.12716 10.3085 4.37427 10.3086 4.62383C10.3086 5.13242 10.5078 5.61055 10.8664 5.96914L12.8305 7.9332C12.3707 8.94655 11.7315 9.86841 10.9438 10.6543C10.1579 11.444 9.23616 12.0855 8.22266 12.548L6.2586 10.584C6.08252 10.4071 5.87323 10.2668 5.64277 10.1711C5.4123 10.0754 5.16518 10.0261 4.91563 10.0262C4.40703 10.0262 3.92891 10.2254 3.57031 10.584L0.882033 13.2676C0.704964 13.444 0.564524 13.6537 0.468793 13.8845C0.373062 14.1154 0.323928 14.3629 0.32422 14.6129C0.32422 15.1215 0.523439 15.5996 0.882033 15.9582L3.37344 18.4496C3.94531 19.0238 4.73516 19.3496 5.54609 19.3496C5.71719 19.3496 5.88125 19.3355 6.04297 19.3074C9.20234 18.7871 12.3359 17.1066 14.8648 14.5801C17.3914 12.0559 19.0695 8.92461 19.5969 5.75586C19.7563 4.78789 19.4352 3.7918 18.7367 3.08867Z" fill="#56756B"/>
</svg>
