<svg width="21" height="25" viewBox="0 0 21 25" fill="none" xmlns="http://www.w3.org/2000/svg">
<path d="M18.9291 24.2127H6.42847C5.98656 24.2122 5.56287 24.0314 5.25039 23.71C4.93791 23.3886 4.76216 22.9528 4.76172 22.4983V17.3552H6.42847V22.4983H18.9291V3.64016H11.4287V1.92578H18.9291C19.371 1.92624 19.7947 2.107 20.1072 2.42841C20.4197 2.74982 20.5954 3.18562 20.5959 3.64016V22.4983C20.5954 22.9528 20.4197 23.3886 20.1072 23.71C19.7947 24.0314 19.371 24.2122 18.9291 24.2127Z" fill="#56756B"/>
<path d="M11.4336 7.06836H17.2672V8.78273H11.4336V7.06836Z" fill="#56756B"/>
<path d="M10.5977 11.3535H17.2647V13.0679H10.5977V11.3535Z" fill="#56756B"/>
<path d="M9.76562 15.6406H17.266V17.355H9.76562V15.6406Z" fill="#56756B"/>
<path d="M4.76454 14.7831C3.65975 14.782 2.60053 14.3301 1.81933 13.5266C1.03812 12.723 0.598759 11.6335 0.597656 10.4972V1.06813H2.26441V10.4972C2.26441 11.1792 2.52782 11.8333 2.99668 12.3156C3.46555 12.7978 4.10146 13.0688 4.76454 13.0688C5.42762 13.0688 6.06353 12.7978 6.5324 12.3156C7.00127 11.8333 7.26467 11.1792 7.26467 10.4972V2.7825C7.26467 2.55516 7.17687 2.33713 7.02058 2.17638C6.86429 2.01562 6.65232 1.92531 6.43129 1.92531C6.21027 1.92531 5.9983 2.01562 5.84201 2.17638C5.68572 2.33713 5.59792 2.55516 5.59792 2.7825V11.3544H3.93116V2.7825C3.93116 2.10048 4.19457 1.44639 4.66343 0.964131C5.1323 0.481869 5.76822 0.210938 6.43129 0.210938C7.09437 0.210938 7.73029 0.481869 8.19915 0.964131C8.66802 1.44639 8.93142 2.10048 8.93142 2.7825V10.4972C8.93032 11.6335 8.49096 12.723 7.70975 13.5266C6.92855 14.3301 5.86933 14.782 4.76454 14.7831Z" fill="#56756B"/>
</svg>
