<svg width="23" height="15" viewBox="0 0 23 15" fill="none" xmlns="http://www.w3.org/2000/svg">
<path d="M22.2003 7.5944C19.9536 3.44107 16.0136 0.927734 11.6536 0.927734C7.29359 0.927734 3.34693 3.44107 1.12026 7.5944L0.933594 7.90773L1.10693 8.22773C3.35359 12.3811 7.29359 14.8944 11.6536 14.8944C16.0136 14.8944 19.9603 12.4144 22.2003 8.22773L22.3736 7.90773L22.2003 7.5944ZM11.6536 13.5277C7.90026 13.5277 4.45359 11.4344 2.45359 7.90773C4.45359 4.38107 7.90026 2.28773 11.6536 2.28773C15.4069 2.28773 18.8136 4.38773 20.8469 7.90773C18.8136 11.4344 15.4003 13.5277 11.6536 13.5277Z" fill="#56756B"/>
<path d="M11.654 10.888C13.2983 10.888 14.6312 9.55509 14.6312 7.91082C14.6312 6.26654 13.2983 4.93359 11.654 4.93359C10.0097 4.93359 8.67676 6.26654 8.67676 7.91082C8.67676 9.55509 10.0097 10.888 11.654 10.888Z" fill="#56756B"/>
</svg>
