<svg width="30" height="30" viewBox="0 0 30 30" fill="none" xmlns="http://www.w3.org/2000/svg">
<rect width="30" height="30" fill="#48DC57"/>
<path d="M19.2777 12.3124C17.7777 9.99992 14.7152 9.31242 12.3402 10.7499C10.0276 12.1874 9.27763 15.3125 10.7776 17.625L10.9026 17.8125L10.4026 19.6875L12.2777 19.1875L12.4652 19.3125C13.2777 19.75 14.1527 20 15.0277 20C15.9652 20 16.9027 19.75 17.7152 19.25C20.0277 17.75 20.7152 14.6875 19.2777 12.3124V12.3124ZM17.9652 17.125C17.7152 17.5 17.4027 17.75 16.9652 17.8125C16.7152 17.8125 16.4027 17.9375 15.1527 17.4375C14.0902 16.9375 13.2152 16.125 12.5902 15.1875C12.2152 14.75 12.0276 14.1875 11.9651 13.625C11.9651 13.1249 12.1526 12.6874 12.4652 12.3749C12.5902 12.2499 12.7152 12.1874 12.8402 12.1874H13.1527C13.2777 12.1874 13.4027 12.1874 13.4652 12.4374C13.5902 12.7499 13.9027 13.5 13.9027 13.5625C13.9652 13.625 13.9652 13.75 13.9027 13.8125C13.9652 13.9375 13.9027 14.0625 13.8402 14.125C13.7777 14.1875 13.7152 14.3125 13.6527 14.375C13.5277 14.4375 13.4652 14.5625 13.5277 14.6875C13.7777 15.0625 14.0902 15.4375 14.4027 15.75C14.7777 16.0625 15.1527 16.3125 15.5902 16.5C15.7152 16.5625 15.8402 16.5625 15.9027 16.4375C15.9652 16.3125 16.2777 16 16.4027 15.875C16.5277 15.75 16.5902 15.75 16.7152 15.8125L17.7152 16.3125C17.8402 16.375 17.9652 16.4375 18.0277 16.5C18.0902 16.6875 18.0902 16.9375 17.9652 17.125V17.125Z" fill="white"/>
</svg>
