<svg width="206" height="56" viewBox="0 0 206 56" fill="none" xmlns="http://www.w3.org/2000/svg">
<g clipPath="url(#clip0)">
<path d="M0.5 18.2701C3.08301 12.8017 5.44495 7.39769 9.76741 3.28762C13.6477 -0.400905 17.7259 0.19043 21.6236 4.66935C26.0043 9.69863 29.2098 15.4539 32.0546 21.4492C32.7469 22.9129 33.0377 25.3309 34.5329 25.448C35.6033 25.5359 36.2374 23.0359 37.017 21.6658C39.7454 16.8825 41.7408 11.6834 45.2779 7.36256C48.7103 3.16467 52.8699 0.547573 58.4839 1.36725C63.0972 2.04055 66.5238 4.85085 69.5373 8.21151C74.1622 13.3696 76.7162 19.7806 80.0496 25.7174C80.3871 26.3204 80.4452 27.3626 81.2597 27.3567C82.0393 27.345 82.1556 26.3204 82.5163 25.7232C85.873 20.1202 88.3571 14.0136 92.3422 8.78528C93.2614 7.57919 94.2853 6.43165 95.379 5.37778C101.325 -0.377486 108.288 -0.383341 114.321 5.3368C116.77 7.6553 118.702 10.3719 120.278 13.3403C121.808 16.2267 123.28 19.1483 124.828 22.023C125.217 22.749 125.316 24.0078 126.288 23.9726C127.166 23.9375 127.405 22.7373 127.8 22.0054C130.133 17.7256 132.658 13.5686 135.73 9.77474C137.65 7.39769 139.726 5.16116 142.275 3.43399C147.627 -0.190132 152.857 0.0323504 157.918 4.09558C162.31 7.62017 165.231 12.304 167.947 17.1225C169.303 19.5288 170.478 22.0288 171.758 24.4703C172.014 24.9621 172.125 25.7232 172.799 25.7349C173.497 25.7466 173.602 24.9679 173.829 24.4761C176.005 19.7162 178.442 15.0968 181.188 10.6354C182.643 8.27591 184.283 6.06279 186.122 4.00191C189.414 0.319236 192.887 -0.0554714 196.902 2.87193C199.997 5.12603 202.132 8.28762 204.371 11.3204C205.5 12.8427 203.97 13.5394 203.167 14.3181C202.231 15.2197 201.631 14.3825 201.102 13.6448C199.316 11.174 197.64 8.61549 195.441 6.47263C192.655 3.756 190.491 3.63891 187.663 6.20331C185.301 8.34617 183.451 10.9516 181.479 13.4574C178.454 17.304 176.941 22.0288 173.986 25.8872C173.288 26.8005 173.3 27.7548 173.887 28.7326C176.901 33.7619 179.699 38.9082 183.242 43.6213C185.424 46.5253 187.32 49.564 190.584 51.4492C192.48 52.5441 194.132 52.6026 195.686 50.9808C198.193 48.3637 200.753 45.7935 202.085 42.2806C202.777 40.4539 204.214 39.0722 205.494 37.5968C205.128 39.9972 203.877 42.023 202.789 44.1014C201.067 47.3801 199.298 50.6412 196.558 53.2349C193.335 56.2794 190.165 56.5019 186.581 53.8965C183.574 51.7127 181.642 48.6096 179.658 45.571C176.604 40.8871 174.289 35.8052 171.723 30.3602C170.059 33.3696 168.512 36.0394 167.081 38.7736C165.364 42.0581 163.718 45.3719 161.507 48.3696C154.538 57.8075 145.195 57.5616 137.202 49.0546C132.396 43.9434 129.685 37.5382 126.416 31.4726C125.991 30.6822 125.863 29.3473 124.828 29.3708C123.99 29.3883 123.792 30.653 123.379 31.3907C121.25 35.1904 119.144 39.0078 117.09 42.8485C115.293 46.215 113.035 49.1951 110.202 51.7595C104.524 56.8942 98.0085 56.8649 92.2491 51.7712C87.9906 48.0066 85.5822 43.0417 83.0224 38.1588C82.2836 36.7419 81.5506 35.3251 80.8699 33.879C80.2067 32.4738 79.6599 32.4621 78.8919 33.8321C76.943 37.3216 74.9534 40.7876 72.6148 44.037C69.6245 48.1822 66.3783 52.0815 61.7068 54.4586C57.4774 56.6131 53.44 56.1213 49.583 53.5101C44.1668 49.845 40.9729 44.3708 37.8489 38.8672C36.6679 36.7829 35.6906 34.5874 34.5794 32.4621C34.2536 31.8415 34.1256 30.8169 33.381 30.7759C32.5432 30.7349 32.5374 31.8005 32.2349 32.4153C29.5065 37.948 26.8653 43.5277 23.3806 48.6506C22.06 50.5944 20.5009 52.304 18.7614 53.8438C15.8002 56.4785 12.3446 56.5429 9.2671 53.996C6.39321 51.6249 4.06036 48.7443 1.90204 45.7174C0.64544 43.9609 1.98348 43.0007 3.07719 42.1167C4.32215 41.1155 4.64794 42.5382 5.15988 43.1764C6.655 45.0441 8.05704 46.9879 9.55216 48.8614C13.0543 53.2408 15.9573 53.3813 19.7795 49.2361C24.131 44.5113 27.5634 39.119 30.67 33.516C31.1645 32.626 31.6532 31.7361 32.1942 30.8754C32.7934 29.9211 32.8283 29.0078 32.2756 28.0066C28.4593 21.0686 24.6372 14.1307 19.3606 8.14125C19.0232 7.76069 18.6799 7.38013 18.3018 7.0464C14.4098 3.56865 12.6006 3.65062 8.95295 7.33329C6.06161 10.2548 3.9091 13.6975 1.78569 17.1694C1.55298 17.5675 1.41336 18.1295 0.5 18.2701ZM150.89 52.345C154.16 52.3216 156.935 51.0569 159.25 48.3579C162.758 44.2712 165.527 39.6869 168.262 35.0558C170.403 31.4375 171.223 28.6857 168.558 24.5054C165.114 19.1131 161.769 13.7384 157.412 9.0546C150.855 1.99956 142.548 2.38013 136.503 9.88598C133.618 13.4691 131.559 17.5558 129.063 21.3731C127.096 24.3883 126.922 26.7946 128.929 29.9621C132.966 36.3321 136.434 43.071 142.024 48.3169C144.52 50.6471 147.318 52.3626 150.89 52.345ZM58.5769 52.8017C63.6964 52.6143 67.251 49.7103 70.1946 45.9808C73.3943 41.9352 75.8842 37.4035 78.4498 32.9305C79.1246 31.7595 79.2119 30.7232 78.5545 29.4644C75.8726 24.3064 72.8358 19.359 69.4675 14.6342C67.3731 11.6951 65.081 8.87895 62.05 6.74781C56.7328 3.01244 50.4498 3.8087 46.3716 8.90237C42.183 14.1307 38.7157 19.8274 35.6557 25.7759C35.1961 26.6658 34.9983 27.4679 35.5044 28.434C39.408 35.8462 43.6199 43.0417 49.8622 48.7736C52.2998 51.016 55.162 52.5733 58.5769 52.8017ZM102.983 4.46443C100.824 4.49371 98.823 5.12603 97.0835 6.37895C94.1107 8.51596 91.6266 11.1506 89.7883 14.3298C87.9383 17.5323 86.3443 20.8989 84.3256 23.9843C82.237 27.1752 81.2771 30.1436 84.0754 33.393C84.6281 34.0312 84.855 34.9445 85.2855 35.6998C87.7987 40.1202 90.434 44.441 94.1922 47.9773C100.487 53.8965 107.526 53.475 113.064 46.8766C116.456 42.8309 118.341 37.8427 121.372 33.6448C124.519 29.2946 124.083 25.7174 121.32 21.5078C118.376 17.0288 115.979 12.1986 111.86 8.58036C109.289 6.32626 106.549 4.52884 102.983 4.46443Z" fill="white"/>
<path d="M148.528 39.6684C147.446 38.4741 147.789 37.268 147.341 36.2258C146.992 39.001 146.992 39.001 145.538 39.7094C146.09 38.2282 146.038 36.823 146.3 35.4823C146.724 33.2633 146.474 31.3195 144.752 29.6977C144.066 29.0537 144.043 28.1579 144.008 27.268C143.891 24.5865 143.705 21.9108 143.606 19.2352C143.566 18.1169 143.31 17.2797 142.129 16.8815C140.732 16.4073 140.918 15.6579 141.919 14.8792C142.204 14.6567 142.513 14.4577 142.774 14.2118C144.7 12.4319 144.677 12.4378 145.479 15.1602C146.003 16.9401 145.852 18.7551 145.939 20.5642C146.09 23.5209 147.19 24.4752 150.07 24.1064C151.937 23.8663 153.804 23.7551 155.689 23.8136C158.761 23.9073 160.169 26.3605 158.726 29.0595C157.772 30.8452 157.051 32.6485 157.26 34.8499C157.435 36.6591 157.109 38.6087 155.608 40.4471C155.067 38.7785 156.643 37.8242 156.021 36.5478C154.724 37.4085 155.16 39.4811 153.612 40.1427C152.996 39.6274 153.45 39.2762 153.653 38.9659C155.585 36.056 155.067 33.0993 153.834 30.131C153.752 29.9319 153.612 29.5689 153.543 29.5806C152.088 29.7855 150.704 30.2949 149.22 30.4178C148.435 30.4823 148.545 31.4249 148.54 32.063C148.516 34.4694 148.528 36.8874 148.528 39.6684Z" fill="white"/>
<path d="M70.7767 24.5805C68.63 23.9072 67.5712 25.1485 66.7742 26.8464C66.2797 27.8944 65.7445 28.9307 65.2558 29.9787C64.9068 30.7281 64.7671 31.4717 65.3547 32.2211C65.8027 32.789 67.1756 33.0407 66.5764 33.9248C65.7445 35.1543 65.5234 36.9869 63.5396 37.3089C61.998 37.5548 59.6069 36.7527 58.8856 35.4939C58.775 35.3065 58.6587 34.9904 58.5249 34.9728C56.2444 34.7211 55.9535 33.0642 55.5114 31.2316C55.2554 30.1719 55.5055 30.1192 56.2793 30.0782C56.64 30.0606 57.0065 30.0724 57.3672 30.0665C60.5552 30.0372 62.6205 28.4272 63.4582 25.3768C63.656 24.6567 63.5454 24.2117 62.7601 24.1707C62.0852 24.1356 62.4517 22.3206 61.1428 23.3452C58.298 25.5759 54.9412 27.104 52.4222 29.7913C51.6601 30.6051 51.3809 31.3194 52.0964 32.2562C52.9691 33.3979 52.6491 33.4857 51.4158 34.4693C49.2051 36.2316 46.7617 35.6344 44.5452 36.4365C43.277 36.8932 42.2065 36.9869 43.085 34.8323C43.8006 33.0817 44.01 31.0325 42.1251 29.4635C41.3805 28.8428 40.2635 27.8827 41.9622 26.9225C42.1251 26.8288 42.2531 26.6063 42.3113 26.4131C43.0501 23.9365 43.341 23.7667 45.5517 25.4646C47.1224 26.6707 48.4721 26.7117 50.1185 25.7398C52.2942 24.4517 54.2489 22.7304 56.7156 21.9986C57.6522 21.7234 56.5585 20.8218 57.4312 20.5056C58.618 20.0782 59.5313 19.1941 61.0439 20.0138C62.539 20.8276 64.3017 19.9435 65.9597 19.9845C70.3229 20.0958 70.3288 20.0255 70.7767 24.5805Z" fill="white"/>
<path d="M108.284 13.5918C108.924 15.0672 108.383 15.8635 107.184 16.2265C106.428 16.4548 105.625 16.5251 104.834 16.6421C104.165 16.7417 103.478 16.8529 103.379 17.6726C103.298 18.3225 103.758 18.744 104.275 19.0543C106.556 20.4185 109.069 21.1562 111.646 21.689C112.839 21.9349 113.066 21.1152 113.159 20.114C113.275 18.867 112.443 17.614 113.374 15.8108C113.607 17.737 113.88 19.1187 113.909 20.5063C113.95 22.1808 112.856 22.8014 111.047 22.2862C108.08 21.4372 107.853 21.6129 108.26 24.7569C108.377 25.682 108.272 26.4782 107.673 27.2042C107.405 27.5321 107.068 27.9244 107.458 28.3459C107.76 28.6738 108.127 28.3927 108.464 28.3049C109.628 27.9829 110.442 27.5145 110.75 26.0918C111.361 23.2815 112.321 22.8775 114.846 24.0485C116.521 24.8213 117.499 24.4642 117.644 22.2745C118.523 23.0883 118.313 23.7909 117.923 24.4759C117.563 25.1023 116.969 25.3482 116.26 25.2604C115.975 25.2253 115.701 25.1082 115.422 25.0438C114.276 24.7862 113.176 23.2698 111.96 24.8916C111.134 25.9864 111.047 30.2077 111.751 31.2382C112.315 32.0637 113.229 31.5192 113.956 31.8471C111.989 32.7019 111.46 32.5321 110.954 30.7873C110.768 30.1375 110.803 29.3939 109.79 29.751C109.057 30.0145 108.441 30.3599 108.743 31.326C109.168 32.6784 109.145 34.0485 108.825 35.4126C108.226 37.9712 105.887 40.2897 103.519 40.6176C101.396 40.9103 99.5457 40.2897 98.481 38.3752C97.1197 35.9279 97.5153 33.4513 98.9872 31.1621C99.406 30.5063 100.063 29.997 100.622 29.4349C101.012 29.0485 101.791 28.7792 101.396 28.0883C100.948 27.2979 100.145 27.5087 99.4584 27.8131C98.9988 28.018 98.609 28.3752 98.1553 28.5918C97.2884 29.0075 96.4216 28.9314 95.7351 28.2522C95.0312 27.5496 95.293 26.8061 95.8282 26.1035C96.1773 25.641 96.602 25.1375 96.1075 24.552C95.6537 24.0133 95.0487 24.3002 94.4785 24.3646C93.763 24.4525 93.03 24.5344 92.3202 24.4817C90.6971 24.3529 90.1386 23.422 90.7553 21.97C92.0759 18.8494 91.8316 18.5098 88.2305 18.7382C89.3067 17.3096 91.5756 18.5977 92.2853 16.5075C91.849 19.2007 93.6583 19.5286 95.2814 19.9384C98.3589 20.7054 98.737 21.3026 97.8644 24.2944C97.3815 25.9454 97.8644 26.5368 99.5224 26.1152C101.082 25.7171 102.658 25.6117 104.24 25.4829C105.747 25.3599 106.695 24.6047 106.963 23.1468C107.219 21.7417 106.538 20.7756 105.247 20.2194C105.049 20.1316 104.84 20.0672 104.642 19.9794C103.507 19.5051 102.489 18.8845 102.734 17.4443C102.984 15.963 104.246 15.8225 105.416 15.7522C106.823 15.6703 108.132 15.5766 108.284 13.5918ZM95.6886 23.5157C96.5205 23.6913 97.1895 23.9782 97.5735 23.1527C97.8469 22.5672 97.7771 22.0286 97.3292 21.566C96.1831 20.3834 94.5542 20.4595 93.1347 20.1082C92.0235 19.833 92.1166 21.2792 91.6745 21.9115C90.7262 23.2522 91.2382 24.0133 92.9311 23.9314C93.9201 23.8787 94.9032 23.6386 95.6886 23.5157Z" fill="white"/>
</g>
<defs>
<clipPath id="clip0">
<rect width="205" height="55" fill="white" transform="translate(0.5 0.863281)"/>
</clipPath>
</defs>
</svg>
